HIERARCHY
ROOT root
{
	OFFSET	0	13.1	24.9
	CHANNELS 6  Xposition Yposition Zposition Xrotation Yrotation Zrotation
	JOINT spine_1
	{
		OFFSET	0	9.99999	0
		CHANNELS 3  Xrotation Yrotation Zrotation
		JOINT spine_2
		{
			OFFSET	0	112	-10
			CHANNELS 3  Xrotation Yrotation Zrotation
			JOINT spine_3
			{
				OFFSET	0	206.5	19.3
				CHANNELS 3  Xrotation Yrotation Zrotation
				JOINT spine_4
				{
					OFFSET	0	110.4	14.6
					CHANNELS 3  Xrotation Yrotation Zrotation
					JOINT neck_1
					{
						OFFSET	0	71.8	-50.3
						CHANNELS 3  Xrotation Yrotation Zrotation
						JOINT neck_2
						{
							OFFSET	0	86.2	-25.8
							CHANNELS 3  Xrotation Yrotation Zrotation
							JOINT head_ee
							{
								OFFSET	0	179.8	-8.7
								CHANNELS 3  Xrotation Yrotation Zrotation
								End Site
								{
									OFFSET	1	0	0
								}
							}
						}
					}
					JOINT left_clavicle
					{
						OFFSET	-43.2	22.4	-70.8
						CHANNELS 3  Xrotation Yrotation Zrotation
						JOINT left_shoulder
						{
							OFFSET	-93.9	-5.79999	48.7
							CHANNELS 3  Xrotation Yrotation Zrotation
							JOINT left_elbow
							{
								OFFSET	-291.4	-30.8	15.2
								CHANNELS 3  Xrotation Yrotation Zrotation
								JOINT left_lowarm_twist
								{
									OFFSET	-110.7	-3.89999	13.6
									CHANNELS 3  Xrotation Yrotation Zrotation
									JOINT left_hand
									{
										OFFSET	-110.7	-3.89999	13.6
										CHANNELS 3  Xrotation Yrotation Zrotation
										JOINT left_ee
										{
											OFFSET	-80.8	-5.10001	12.1
											CHANNELS 3  Xrotation Yrotation Zrotation
											End Site
											{
												OFFSET	1	0	0
											}
										}
									}
								}
							}
						}
					}
					JOINT right_clavicle
					{
						OFFSET	43.2	22.4	-70.8
						CHANNELS 3  Xrotation Yrotation Zrotation
						JOINT right_shoulder
						{
							OFFSET	93.9	-5.79999	48.7
							CHANNELS 3  Xrotation Yrotation Zrotation
							JOINT right_elbow
							{
								OFFSET	291.4	-30.8	15.2
								CHANNELS 3  Xrotation Yrotation Zrotation
								JOINT right_lowarm_twist
								{
									OFFSET	110.7	-3.89999	13.6
									CHANNELS 3  Xrotation Yrotation Zrotation
									JOINT right_hand
									{
										OFFSET	110.7	-3.89999	13.6
										CHANNELS 3  Xrotation Yrotation Zrotation
										JOINT right_ee
										{
											OFFSET	80.8	-5.10001	12.1
											CHANNELS 3  Xrotation Yrotation Zrotation
											End Site
											{
												OFFSET	1	0	0
											}
										}
									}
								}
							}
						}
					}
				}
			}
		}
	}
	JOINT left_hip
	{
		OFFSET	-82.8	-127.5	0.300001
		CHANNELS 3  Xrotation Yrotation Zrotation
		JOINT left_knee
		{
			OFFSET	-28.2	-396.7	2.2
			CHANNELS 3  Xrotation Yrotation Zrotation
			JOINT left_ankle
			{
				OFFSET	-11.7	-411.3	35.4
				CHANNELS 3  Xrotation Yrotation Zrotation
				JOINT left_toes
				{
					OFFSET	0	-60	-88.6
					CHANNELS 3  Xrotation Yrotation Zrotation
					JOINT left_foot_ee
					{
						OFFSET	-22.5	-16.5	-42.2
						CHANNELS 3  Xrotation Yrotation Zrotation
						End Site
						{
							OFFSET	1	0	0
						}
					}
				}
			}
		}
	}
	JOINT right_hip
	{
		OFFSET	82.8	-127.5	0.300001
		CHANNELS 3  Xrotation Yrotation Zrotation
		JOINT right_knee
		{
			OFFSET	28.2	-396.7	2.2
			CHANNELS 3  Xrotation Yrotation Zrotation
			JOINT right_ankle
			{
				OFFSET	11.7	-411.3	35.4
				CHANNELS 3  Xrotation Yrotation Zrotation
				JOINT right_toes
				{
					OFFSET	0	-60	-88.6
					CHANNELS 3  Xrotation Yrotation Zrotation
					JOINT right_foot_ee
					{
						OFFSET	22.5	-16.5	-42.2
						CHANNELS 3  Xrotation Yrotation Zrotation
						End Site
						{
							OFFSET	1	0	0
						}
					}
				}
			}
		}
	}
}
MOTION
Frames: 6
Frame Time: 0.02
1061.59958507 753.113 -1476.68549849 162.590094421 65.6048525133 -159.840895602 -2.27606 -0.506772 -1.14462 -2.27543 -0.432915 -1.17455 -2.26549 -0.127311 -1.24529 -2.26751 -0.322369 -1.20956 -11.9279 2.0987 -3.05004 -11.9189 5.94558 -2.3473 -0.0 0.0 -0.0 7.57914 16.9308 13.9309 -16.234 -16.0011 63.436 0.151001 -4.27795 0.00563983 48.8737 -0.889361 -5.99298 -5.10257 25.368 -19.0455 -0.0 0.0 -0.0 12.6893 26.8993 -24.8533 19.2705 -33.3629 -56.4161 1.69824 40.0691 -0.619308 83.8745 4.29227 8.81292 9.14273 14.3308 -71.0483 0.0 0.0 0.0 13.5514 -13.0324 -7.15404 -57.9269 -1.98034 8.2931 -19.144 17.8077 2.9137 35.9554 -0.0 -0.0 -0.0 0.0 -0.0 -0.8606 -9.56535 -7.46722 -20.5696 -0.288432 -3.12646 26.2801 24.3835 4.04976 -12.6815 0.0 0.0 0.0 0.0 0.0 
1049.11131965 752.159 -1474.50570252 161.58991666 65.0323878933 -159.147826547 -2.63536 -0.508677 -0.974204 -2.63495 -0.445658 -1.00459 -2.62626 -0.175079 -1.08497 -2.62774 -0.344223 -1.04371 -12.2405 2.29194 -4.12495 -12.218 6.98882 -3.30888 -0.0 0.0 -0.0 7.38045 17.1984 13.5858 -16.7332 -14.975 62.6936 0.159414 -4.51535 0.00628474 48.4185 -0.857929 -5.9439 -4.9904 24.1523 -19.251 -0.0 0.0 -0.0 12.5109 26.8737 -24.4471 21.6337 -30.1728 -57.0645 1.90212 43.2925 -0.754937 83.0897 4.19928 8.77425 9.12842 14.1621 -71.0826 0.0 0.0 0.0 16.6448 -10.4036 -7.37918 -57.0914 -1.89424 8.19727 -19.6646 18.213 2.99708 35.3276 -0.0 -0.0 -0.0 0.0 -0.0 -1.05447 -9.02264 -7.51662 -22.7655 -0.252551 -3.46149 26.2972 23.9156 4.0325 -12.1776 0.0 0.0 0.0 0.0 0.0 
1036.35146065 753.95 -1475.8711535 162.382194622 64.4686247405 -160.121422015 -2.85543 -0.543674 -0.695973 -2.8553 -0.498287 -0.729156 -2.84845 -0.292901 -0.833163 -2.84917 -0.420804 -0.776453 -11.4359 2.21436 -2.55008 -11.4323 5.85548 -1.85951 -0.0 0.0 -0.0 7.05402 15.8443 13.1538 -16.819 -13.2161 62.696 0.161141 -4.56406 0.00642151 48.9786 -0.896664 -6.00426 -5.75386 27.7102 -21.1461 -0.0 0.0 -0.0 11.9642 25.6995 -23.3329 21.8649 -27.7524 -58.9613 2.23437 47.8966 -0.99249 81.3559 3.99577 8.68435 9.09283 13.5592 -71.486 0.0 0.0 0.0 17.5491 -6.71197 -8.35112 -53.7977 -1.56876 7.80769 -14.3974 14.9614 2.16983 36.1062 -0.0 -0.0 -0.0 0.0 -0.0 -1.0319 -7.55366 -8.09479 -23.5001 -0.237684 -3.57323 26.3063 23.5389 4.01832 -11.9107 0.0 0.0 0.0 0.0 0.0 
1025.47073808 752.894 -1471.18929321 162.839090211 63.9191084211 -160.664660356 -2.97437 -0.489114 -0.636907 -2.97425 -0.447596 -0.666738 -2.96862 -0.258465 -0.760311 -2.96923 -0.375295 -0.709953 -10.4785 1.8636 -2.00395 -10.4746 4.85366 -1.46971 -0.0 0.0 -0.0 6.87671 15.1726 12.9034 -16.8513 -11.6234 62.7524 0.152337 -4.31566 0.0057399 48.9442 -0.894266 -6.00056 -6.36026 29.5788 -23.1831 -0.0 0.0 -0.0 11.1296 24.4868 -21.5629 21.7984 -23.4041 -61.6417 2.51798 51.2722 -1.20851 80.1252 3.85299 8.61681 9.06849 13.1252 -71.7959 0.0 0.0 0.0 20.2265 -4.18099 -9.10963 -51.7005 -1.37347 7.55027 -13.3165 13.1389 1.99894 34.997 -0.0 -0.0 -0.0 0.0 -0.0 -1.42342 -6.28318 -8.54687 -23.2354 -0.243206 -3.53299 26.3316 21.5227 3.94418 -11.9666 0.0 0.0 0.0 0.0 0.0 
1013.78504505 751.547 -1473.63422132 160.744242872 65.7239305571 -158.431194246 -3.04621 -0.36654 -0.588711 -3.04608 -0.328337 -0.610841 -3.04222 -0.157005 -0.675483 -3.04276 -0.261713 -0.642212 -11.0071 2.45359 -1.92011 -11.0103 5.90285 -1.20863 -0.0 0.0 -0.0 6.54367 14.3413 12.393 -17.1778 -10.1296 63.3051 0.152222 -4.3124 0.00573119 49.5891 -0.939553 -6.06961 -6.43281 29.9924 -23.2469 -0.0 0.0 -0.0 11.2478 23.3987 -21.9366 22.4901 -22.2784 -62.7393 2.80821 54.2793 -1.4397 79.2869 3.75658 8.56906 9.02144 12.4213 -72.1385 0.0 0.0 0.0 22.8896 -0.881299 -9.70553 -47.1038 -0.97939 6.96254 -10.6919 11.6538 1.59756 36.2925 -0.0 -0.0 -0.0 0.0 -0.0 -2.80895 -5.13666 -9.08185 -22.7727 -0.252413 -3.46258 26.398 22.2355 3.97896 -11.7334 0.0 0.0 0.0 0.0 0.0 
1002.1416748 750.355 -1471.82730018 161.737192624 65.4011584409 -159.465432194 -3.04552 -0.27113 -0.469366 -3.04543 -0.240714 -0.485667 -3.04317 -0.105187 -0.531743 -3.04351 -0.187845 -0.508458 -10.5109 2.78233 -2.1353 -10.5128 6.67308 -1.35946 -0.0 0.0 -0.0 6.27211 13.5728 11.9697 -17.0054 -7.72601 63.3923 0.177946 -5.03769 0.00782801 51.3618 -1.06802 -6.25675 -6.72344 29.7872 -25.1767 -0.0 0.0 -0.0 10.6932 24.0305 -20.6216 22.7544 -20.5067 -64.3521 3.01177 56.1559 -1.60691 79.1146 3.73684 8.55907 8.99797 12.9924 -70.6942 0.0 0.0 0.0 25.2444 -0.114429 -9.85802 -39.0612 -0.408122 5.86641 -9.69952 10.3112 1.44603 35.7588 -0.0 -0.0 -0.0 0.0 -0.0 -5.09665 -5.41474 -9.99539 -17.8937 -0.314763 -2.71676 25.6599 18.561 3.76164 -12.2015 0.0 0.0 0.0 0.0 0.0 
